<svg xmlns="http://www.w3.org/2000/svg" xmlns:xlink="http://www.w3.org/1999/xlink" viewBox="0 0 1000 1000" width="1000" height="1000" preserveAspectRatio="xMidYMid meet" style="width: 100%; height: 100%; transform: translate3d(0px, 0px, 0px); content-visibility: visible;"><defs><clipPath id="__lottie_element_15"><rect width="1000" height="1000" x="0" y="0"></rect></clipPath><clipPath id="__lottie_element_17"><path d="M0,0 L1000,0 L1000,1000 L0,1000z"></path></clipPath></defs><g clip-path="url(#__lottie_element_15)"><g clip-path="url(#__lottie_element_17)" transform="matrix(2.059999942779541,0,0,2.059999942779541,-619,-530)" opacity="1" style="display: block;"><g transform="matrix(1,0,0,1,380.5589904785156,316.93902587890625)" opacity="1" style="display: block;"><g opacity="1" transform="matrix(1,0,0,1,109.40899658203125,150.17799377441406)"><path fill="rgb(233,215,254)" fill-opacity="1" d=" M-107.28700256347656,148.05599975585938 C-107.28700256347656,148.05599975585938 107.28700256347656,148.05599975585938 107.28700256347656,148.05599975585938 C107.28700256347656,148.05599975585938 107.28700256347656,-148.0570068359375 107.28700256347656,-148.0570068359375 C107.28700256347656,-148.0570068359375 -107.28700256347656,-148.0570068359375 -107.28700256347656,-148.0570068359375 C-107.28700256347656,-148.0570068359375 -107.28700256347656,148.05599975585938 -107.28700256347656,148.05599975585938z"></path><path stroke-linecap="butt" stroke-linejoin="miter" fill-opacity="0" stroke-miterlimit="10" stroke="rgb(86,86,86)" stroke-opacity="1" stroke-width="3" d=" M-107.28700256347656,148.05599975585938 C-107.28700256347656,148.05599975585938 107.28700256347656,148.05599975585938 107.28700256347656,148.05599975585938 C107.28700256347656,148.05599975585938 107.28700256347656,-148.0570068359375 107.28700256347656,-148.0570068359375 C107.28700256347656,-148.0570068359375 -107.28700256347656,-148.0570068359375 -107.28700256347656,-148.0570068359375 C-107.28700256347656,-148.0570068359375 -107.28700256347656,148.05599975585938 -107.28700256347656,148.05599975585938z"></path></g></g><g transform="matrix(1,0,0,1,346.9420166015625,346.26300048828125)" opacity="1" style="display: block;"><g opacity="1" transform="matrix(1,0,0,1,109.40899658203125,150.17799377441406)"><path fill="rgb(233,215,254)" fill-opacity="1" d=" M-107.28700256347656,148.05599975585938 C-107.28700256347656,148.05599975585938 107.28700256347656,148.05599975585938 107.28700256347656,148.05599975585938 C107.28700256347656,148.05599975585938 107.28700256347656,-148.0570068359375 107.28700256347656,-148.0570068359375 C107.28700256347656,-148.0570068359375 -107.28700256347656,-148.0570068359375 -107.28700256347656,-148.0570068359375 C-107.28700256347656,-148.0570068359375 -107.28700256347656,148.05599975585938 -107.28700256347656,148.05599975585938z"></path><path stroke-linecap="butt" stroke-linejoin="miter" fill-opacity="0" stroke-miterlimit="10" stroke="rgb(86,86,86)" stroke-opacity="1" stroke-width="3" d=" M-107.28700256347656,148.05599975585938 C-107.28700256347656,148.05599975585938 107.28700256347656,148.05599975585938 107.28700256347656,148.05599975585938 C107.28700256347656,148.05599975585938 107.28700256347656,-148.0570068359375 107.28700256347656,-148.0570068359375 C107.28700256347656,-148.0570068359375 -107.28700256347656,-148.0570068359375 -107.28700256347656,-148.0570068359375 C-107.28700256347656,-148.0570068359375 -107.28700256347656,148.05599975585938 -107.28700256347656,148.05599975585938z"></path></g></g><g transform="matrix(1,0,0,1,314.75701904296875,374.15899658203125)" opacity="1" style="display: block;"><g opacity="1" transform="matrix(1,0,0,1,109.40799713134766,150.17799377441406)"><path fill="rgb(233,215,254)" fill-opacity="1" d=" M-107.28700256347656,148.05599975585938 C-107.28700256347656,148.05599975585938 107.28700256347656,148.05599975585938 107.28700256347656,148.05599975585938 C107.28700256347656,148.05599975585938 107.28700256347656,-148.0570068359375 107.28700256347656,-148.0570068359375 C107.28700256347656,-148.0570068359375 -107.28700256347656,-148.0570068359375 -107.28700256347656,-148.0570068359375 C-107.28700256347656,-148.0570068359375 -107.28700256347656,148.05599975585938 -107.28700256347656,148.05599975585938z"></path><path stroke-linecap="butt" stroke-linejoin="miter" fill-opacity="0" stroke-miterlimit="10" stroke="rgb(86,86,86)" stroke-opacity="1" stroke-width="3" d=" M-107.28700256347656,148.05599975585938 C-107.28700256347656,148.05599975585938 107.28700256347656,148.05599975585938 107.28700256347656,148.05599975585938 C107.28700256347656,148.05599975585938 107.28700256347656,-148.0570068359375 107.28700256347656,-148.0570068359375 C107.28700256347656,-148.0570068359375 -107.28700256347656,-148.0570068359375 -107.28700256347656,-148.0570068359375 C-107.28700256347656,-148.0570068359375 -107.28700256347656,148.05599975585938 -107.28700256347656,148.05599975585938z"></path></g></g><g transform="matrix(1,0,0,1,341.4209899902344,418.34698486328125)" opacity="1" style="display: block;"><g opacity="1" transform="matrix(1,0,0,1,35.715999603271484,3.7090001106262207)"><path fill="rgb(86,86,86)" fill-opacity="1" d=" M32.007999420166016,3.4579999446868896 C32.007999420166016,3.4579999446868896 -32.00699996948242,3.4579999446868896 -32.00699996948242,3.4579999446868896 C-33.917999267578125,3.4579999446868896 -35.465999603271484,1.9110000133514404 -35.465999603271484,0.0010000000474974513 C-35.465999603271484,-1.909999966621399 -33.917999267578125,-3.4579999446868896 -32.00699996948242,-3.4579999446868896 C-32.00699996948242,-3.4579999446868896 32.007999420166016,-3.4579999446868896 32.007999420166016,-3.4579999446868896 C33.91899871826172,-3.4579999446868896 35.465999603271484,-1.909999966621399 35.465999603271484,0.0010000000474974513 C35.465999603271484,1.9110000133514404 33.91899871826172,3.4579999446868896 32.007999420166016,3.4579999446868896z"></path></g></g><g transform="matrix(1,0,0,1,336.2560119628906,472.4930419921875)" opacity="1" style="display: block;"><g opacity="1" transform="matrix(1,0,0,1,86.22699737548828,48.1619987487793)"><path fill="rgb(255,255,255)" fill-opacity="1" d=" M-36.84700012207031,0 C-36.84700012207031,-21.076000213623047 -20.350000381469727,-38.1609992980957 0.0010000000474974513,-38.1609992980957 C20.35099983215332,-38.1609992980957 36.84700012207031,-21.076000213623047 36.84700012207031,0 C36.84700012207031,21.076000213623047 20.35099983215332,38.1609992980957 0.0010000000474974513,38.1609992980957 C-20.350000381469727,38.1609992980957 -36.84700012207031,21.076000213623047 -36.84700012207031,0z"></path><path stroke-linecap="butt" stroke-linejoin="miter" fill-opacity="0" stroke-miterlimit="10" stroke="rgb(86,86,86)" stroke-opacity="1" stroke-width="4" d=" M-36.84700012207031,0 C-36.84700012207031,-21.076000213623047 -20.350000381469727,-38.1609992980957 0.0010000000474974513,-38.1609992980957 C20.35099983215332,-38.1609992980957 36.84700012207031,-21.076000213623047 36.84700012207031,0 C36.84700012207031,21.076000213623047 20.35099983215332,38.1609992980957 0.0010000000474974513,38.1609992980957 C-20.350000381469727,38.1609992980957 -36.84700012207031,21.076000213623047 -36.84700012207031,0z"></path></g><g opacity="1" transform="matrix(1,0,0,1,87.90899658203125,133.25100708007812)"><path fill="rgb(255,255,255)" fill-opacity="1" d=" M77.90899658203125,42.2869987487793 C77.90899658203125,42.2869987487793 -77.90899658203125,42.2869987487793 -77.90899658203125,42.2869987487793 C-77.90899658203125,42.2869987487793 -69.1500015258789,-39.034000396728516 -27.415000915527344,-42.2869987487793 C-27.415000915527344,-42.2869987487793 29.839000701904297,-42.2869987487793 29.839000701904297,-42.2869987487793 C34.21900177001953,-42.2869987487793 38.51300048828125,-41.03200149536133 42.255001068115234,-38.69300079345703 C54.28900146484375,-31.209999084472656 77.39900207519531,-10.013999938964844 77.90899658203125,42.2869987487793z"></path><path stroke-linecap="butt" stroke-linejoin="miter" fill-opacity="0" stroke-miterlimit="10" stroke="rgb(86,86,86)" stroke-opacity="1" stroke-width="4" d=" M77.90899658203125,42.2869987487793 C77.90899658203125,42.2869987487793 -77.90899658203125,42.2869987487793 -77.90899658203125,42.2869987487793 C-77.90899658203125,42.2869987487793 -69.1500015258789,-39.034000396728516 -27.415000915527344,-42.2869987487793 C-27.415000915527344,-42.2869987487793 29.839000701904297,-42.2869987487793 29.839000701904297,-42.2869987487793 C34.21900177001953,-42.2869987487793 38.51300048828125,-41.03200149536133 42.255001068115234,-38.69300079345703 C54.28900146484375,-31.209999084472656 77.39900207519531,-10.013999938964844 77.90899658203125,42.2869987487793z"></path></g><g opacity="1" transform="matrix(1,0,0,1,0,0)"><path stroke-linecap="butt" stroke-linejoin="miter" fill-opacity="0" stroke-miterlimit="10" stroke="rgb(86,86,86)" stroke-opacity="1" stroke-width="4" d=" M43.32600021362305,175.53799438476562 C43.32600021362305,175.53799438476562 43.32600021362305,132.1060028076172 43.32600021362305,132.1060028076172"></path></g><g opacity="1" transform="matrix(1,0,0,1,0,0)"><path stroke-linecap="butt" stroke-linejoin="miter" fill-opacity="0" stroke-miterlimit="10" stroke="rgb(86,86,86)" stroke-opacity="1" stroke-width="4" d=" M131.1529998779297,175.53799438476562 C131.1529998779297,175.53799438476562 131.1529998779297,132.1060028076172 131.1529998779297,132.1060028076172"></path></g></g><g transform="matrix(0.8688991069793701,0.4949892461299896,-0.4949892461299896,0.8688991069793701,613.7572021484375,352.3744201660156)" opacity="1" style="display: block;"><g opacity="1" transform="matrix(1,0,0,1,147.4929962158203,190.06900024414062)"><path fill="rgb(0,0,0)" fill-opacity="1" d=" M40.97200012207031,49.87699890136719 C40.97200012207031,49.87699890136719 27.070999145507812,58.5369987487793 27.070999145507812,58.5369987487793 C24.451000213623047,60.16999816894531 21.003000259399414,59.36899948120117 19.3700008392334,56.749000549316406 C19.3700008392334,56.749000549316406 -44.393001556396484,-45.599998474121094 -44.393001556396484,-45.599998474121094 C-44.393001556396484,-45.599998474121094 -21.003999710083008,-60.17100143432617 -21.003999710083008,-60.17100143432617 C-21.003999710083008,-60.17100143432617 42.76100158691406,42.176998138427734 42.76100158691406,42.176998138427734 C44.393001556396484,44.797000885009766 43.59199905395508,48.24399948120117 40.97200012207031,49.87699890136719z"></path></g><g opacity="1" transform="matrix(1,0,0,1,82.18000030517578,82.18099975585938)"><path fill="rgb(158,119,237)" fill-opacity="1" d=" M-72.18000030517578,0 C-72.18000030517578,-39.86399841308594 -39.86399841308594,-72.18000030517578 0.0010000000474974513,-72.18000030517578 C39.8650016784668,-72.18000030517578 72.18000030517578,-39.86399841308594 72.18000030517578,0 C72.18000030517578,39.86399841308594 39.8650016784668,72.18000030517578 0.0010000000474974513,72.18000030517578 C-39.86399841308594,72.18000030517578 -72.18000030517578,39.86399841308594 -72.18000030517578,0z"></path><path stroke-linecap="round" stroke-linejoin="miter" fill-opacity="0" stroke-miterlimit="10" stroke="rgb(0,0,0)" stroke-opacity="1" stroke-width="4" d=" M-72.18000030517578,0 C-72.18000030517578,-39.86399841308594 -39.86399841308594,-72.18000030517578 0.0010000000474974513,-72.18000030517578 C39.8650016784668,-72.18000030517578 72.18000030517578,-39.86399841308594 72.18000030517578,0 C72.18000030517578,39.86399841308594 39.8650016784668,72.18000030517578 0.0010000000474974513,72.18000030517578 C-39.86399841308594,72.18000030517578 -72.18000030517578,39.86399841308594 -72.18000030517578,0z"></path></g><g opacity="1" transform="matrix(1,0,0,1,85.9209976196289,80.93299865722656)"><path fill="rgb(0,0,0)" fill-opacity="1" d=" M-26.464000701904297,29.73900032043457 C-27.357999801635742,29.73900032043457 -28.25,29.395000457763672 -28.926000595092773,28.711000442504883 C-30.26799964904785,27.350000381469727 -30.253999710083008,25.159000396728516 -28.895000457763672,23.81999969482422 C-28.895000457763672,23.81999969482422 24.034000396728516,-28.392000198364258 24.034000396728516,-28.392000198364258 C25.395999908447266,-29.73900032043457 27.586999893188477,-29.718000411987305 28.927000045776367,-28.361000061035156 C30.26799964904785,-27.000999450683594 30.253999710083008,-24.809999465942383 28.89299964904785,-23.469999313354492 C28.89299964904785,-23.469999313354492 -24.034000396728516,28.742000579833984 -24.034000396728516,28.742000579833984 C-24.709999084472656,29.408000946044922 -25.586000442504883,29.73900032043457 -26.464000701904297,29.73900032043457z"></path></g><g opacity="1" transform="matrix(1,0,0,1,69.07599639892578,66.9280014038086)"><path fill="rgb(0,0,0)" fill-opacity="1" d=" M-13.105999946594238,15.76099967956543 C-14.036999702453613,15.76099967956543 -14.96399974822998,15.38700008392334 -15.645999908447266,14.651000022888184 C-16.94300079345703,13.248000144958496 -16.857999801635742,11.059000015258789 -15.454999923706055,9.76200008392334 C-15.454999923706055,9.76200008392334 10.756999969482422,-14.465999603271484 10.756999969482422,-14.465999603271484 C12.163000106811523,-15.76099967956543 14.345999717712402,-15.675000190734863 15.645999908447266,-14.274999618530273 C16.94300079345703,-12.871999740600586 16.85700035095215,-10.682999610900879 15.454999923706055,-9.38599967956543 C15.454999923706055,-9.38599967956543 -10.756999969482422,14.842000007629395 -10.756999969482422,14.842000007629395 C-11.423999786376953,15.456999778747559 -12.265999794006348,15.76099967956543 -13.105999946594238,15.76099967956543z"></path></g><g opacity="1" transform="matrix(1,0,0,1,102.86699676513672,96.322998046875)"><path fill="rgb(0,0,0)" fill-opacity="1" d=" M-15.246999740600586,19.016000747680664 C-16.12700080871582,19.016000747680664 -17.007999420166016,18.683000564575195 -17.680999755859375,18.013999938964844 C-19.038999557495117,16.66900062561035 -19.048999786376953,14.479000091552734 -17.70400047302246,13.123000144958496 C-17.70400047302246,13.123000144958496 12.791000366210938,-17.64900016784668 12.791000366210938,-17.64900016784668 C14.135000228881836,-19.006000518798828 16.32900047302246,-19.016000747680664 17.683000564575195,-17.672000885009766 C19.040000915527344,-16.32699966430664 19.04800033569336,-14.13599967956543 17.70400047302246,-12.779999732971191 C17.70400047302246,-12.779999732971191 -12.789999961853027,17.992000579833984 -12.789999961853027,17.992000579833984 C-13.465999603271484,18.67300033569336 -14.357000350952148,19.016000747680664 -15.246999740600586,19.016000747680664z"></path></g></g></g></g></svg>