<svg xmlns="http://www.w3.org/2000/svg" xmlns:xlink="http://www.w3.org/1999/xlink" viewBox="0 0 1000 1000" width="1000" height="1000" preserveAspectRatio="xMidYMid meet" style="width: 100%; height: 100%; transform: translate3d(0px, 0px, 0px); content-visibility: visible;"><defs><clipPath id="__lottie_element_38"><rect width="1000" height="1000" x="0" y="0"></rect></clipPath><clipPath id="__lottie_element_40"><path d="M0,0 L1000,0 L1000,1000 L0,1000z"></path></clipPath></defs><g clip-path="url(#__lottie_element_38)"><g clip-path="url(#__lottie_element_40)" transform="matrix(1.7680000066757202,0,0,1.7680000066757202,-419,-345)" opacity="1" style="display: block;"><g transform="matrix(1,0,0,1,431.8190002441406,204.7869873046875)" opacity="1" style="display: none;"><g opacity="1" transform="matrix(1,0,0,1,158.31199645996094,103.19599914550781)"><path fill="rgb(86,86,86)" fill-opacity="1" d=" M20.780000686645508,-28.492000579833984 C18.312000274658203,-38.20100021362305 9.708000183105469,-44.82400131225586 -0.3580000102519989,-44.72700119018555 C-10.48900032043457,-44.59700012207031 -19.093000411987305,-37.55099868774414 -21.17099952697754,-27.680999755859375 C-23.249000549316406,-17.80900001525879 -18.34600067138672,-7.874000072479248 -8.961999893188477,-3.75 C-6.429999828338623,-2.6459999084472656 -5.781000137329102,-1.347000002861023 -5.781000137329102,1.25 C-5.909999847412109,14.562999725341797 -5.84499979019165,27.875 -5.84499979019165,41.1879997253418 C-5.84499979019165,41.1879997253418 -5.84499979019165,44.82400131225586 -5.84499979019165,44.82400131225586 C-5.84499979019165,44.82400131225586 5.810999870300293,44.82400131225586 5.810999870300293,44.82400131225586 C5.810999870300293,44.82400131225586 5.810999870300293,-2.322000026702881 5.810999870300293,-2.322000026702881 C7.110000133514404,-2.9059998989105225 8.376999855041504,-3.3929998874664307 9.57800006866455,-4.010000228881836 C18.57200050354004,-8.491000175476074 23.24799919128418,-18.750999450683594 20.780000686645508,-28.492000579833984z M-0.2590000033378601,-13.263999938964844 C-5.78000020980835,-13.392999649047852 -10.130999565124512,-17.777000427246094 -10.130999565124512,-23.200000762939453 C-10.130999565124512,-28.784000396728516 -5.552000045776367,-33.29800033569336 0.032999999821186066,-33.233001708984375 C5.519999980926514,-33.167999267578125 9.869999885559082,-28.784000396728516 9.869999885559082,-23.263999938964844 C9.902000427246094,-17.64699935913086 5.326000213623047,-13.133999824523926 -0.2590000033378601,-13.263999938964844z"></path></g><g opacity="1" transform="matrix(1,0,0,1,90.72599792480469,74.13500213623047)"><path fill="rgb(86,86,86)" fill-opacity="1" d=" M21.187000274658203,-56.48099899291992 C19.23900032043457,-66.5790023803711 10.569000244140625,-73.75399780273438 0.3089999854564667,-73.81999969482422 C-9.918999671936035,-73.88500213623047 -18.65399932861328,-67.06600189208984 -20.86199951171875,-57.2599983215332 C-23.16699981689453,-47.06399917602539 -18.231000900268555,-36.83599853515625 -8.588000297546387,-32.77799987792969 C-5.989999771118164,-31.673999786376953 -5.4710001945495605,-30.309999465942383 -5.4710001945495605,-27.777999877929688 C-5.535999774932861,4.822000026702881 -5.504000186920166,37.422000885009766 -5.504000186920166,70.0530014038086 C-5.504000186920166,70.0530014038086 -5.504000186920166,73.88500213623047 -5.504000186920166,73.88500213623047 C-5.504000186920166,73.88500213623047 5.926000118255615,73.88500213623047 5.926000118255615,73.88500213623047 C5.828000068664551,72.78099822998047 5.698999881744385,71.7750015258789 5.698999881744385,70.83300018310547 C5.665999889373779,37.64899826049805 5.698999881744385,4.465000152587891 5.633999824523926,-28.68600082397461 C5.633999824523926,-30.895000457763672 6.446000099182129,-31.770999908447266 8.361000061035156,-32.58300018310547 C17.972000122070312,-36.57699966430664 23.16699981689453,-46.415000915527344 21.187000274658203,-56.48099899291992z M-0.11299999803304672,-42.388999938964844 C-5.504000186920166,-42.45399856567383 -9.984000205993652,-46.999000549316406 -9.984000205993652,-52.356998443603516 C-9.95199966430664,-57.909000396728516 -5.308000087738037,-62.42300033569336 0.24300000071525574,-62.358001708984375 C5.665999889373779,-62.2599983215332 10.147000312805176,-57.7140007019043 10.147000312805176,-52.356998443603516 C10.147000312805176,-46.83700180053711 5.504000186920166,-42.32400131225586 -0.11299999803304672,-42.388999938964844z"></path></g><g opacity="1" transform="matrix(1,0,0,1,23.448999404907227,103.17900085449219)"><path fill="rgb(86,86,86)" fill-opacity="1" d=" M21.02400016784668,-27.92300033569336 C18.81599998474121,-37.82699966430664 9.88700008392334,-44.84000015258789 -0.37299999594688416,-44.709999084472656 C-10.470999717712402,-44.58000183105469 -19.139999389648438,-37.43600082397461 -21.15399932861328,-27.56599998474121 C-23.198999404907227,-17.565000534057617 -18.069000244140625,-7.630000114440918 -8.52299976348877,-3.506999969482422 C-6.4770002365112305,-2.630000114440918 -5.665999889373779,-1.687000036239624 -5.698999881744385,0.6179999709129333 C-5.828000068664551,14.288000106811523 -5.763999938964844,27.923999786376953 -5.763999938964844,41.59299850463867 C-5.763999938964844,41.59299850463867 -5.763999938964844,44.84000015258789 -5.763999938964844,44.84000015258789 C-5.763999938964844,44.84000015258789 5.698999881744385,44.84000015258789 5.698999881744385,44.84000015258789 C5.698999881744385,44.84000015258789 5.698999881744385,40.97800064086914 5.698999881744385,40.97800064086914 C5.698999881744385,27.665000915527344 5.795000076293945,14.352999687194824 5.632999897003174,1.0399999618530273 C5.599999904632568,-1.5579999685287476 6.446000099182129,-2.628999948501587 8.75100040435791,-3.6679999828338623 C18.23200035095215,-7.888999938964844 23.198999404907227,-17.954999923706055 21.02400016784668,-27.92300033569336z M-0.17800000309944153,-13.248000144958496 C-5.796000003814697,-13.312000274658203 -10.145999908447266,-17.857999801635742 -10.015999794006348,-23.540000915527344 C-9.854000091552734,-28.996000289916992 -5.406000137329102,-33.28200149536133 0.11400000005960464,-33.21699905395508 C5.568999767303467,-33.152000427246094 9.951000213623047,-28.702999114990234 9.951000213623047,-23.24799919128418 C9.951000213623047,-17.631000518798828 5.4720001220703125,-13.182999610900879 -0.17800000309944153,-13.248000144958496z"></path></g></g><g transform="matrix(1,0,0,1,651.052978515625,390.5459899902344)" opacity="1" style="display: none;"><g opacity="1" transform="matrix(1,0,0,1,45.025001525878906,23.465999603271484)"><path fill="rgb(86,86,86)" fill-opacity="1" d=" M27.923999786376953,-21.007999420166016 C17.826000213623047,-23.215999603271484 7.5970001220703125,-18.05299949645996 3.5390000343322754,-8.409000396728516 C2.630000114440918,-6.234000205993652 1.559000015258789,-5.617000102996826 -0.6489999890327454,-5.617000102996826 C-12.954000473022461,-5.715000152587891 -25.261999130249023,-5.682000160217285 -37.56800079345703,-5.682000160217285 C-37.56800079345703,-5.682000160217285 -44.7760009765625,-5.682000160217285 -44.7760009765625,-5.682000160217285 C-44.7760009765625,-5.682000160217285 -44.7760009765625,6.006999969482422 -44.7760009765625,6.006999969482422 C-44.09400177001953,5.908999919891357 -43.67100143432617,5.811999797821045 -43.215999603271484,5.811999797821045 C-28.76799964904785,5.811999797821045 -14.35200023651123,5.876999855041504 0.09700000286102295,5.715000152587891 C2.4670000076293945,5.682000160217285 2.825000047683716,7.046000003814697 3.507999897003174,8.604000091552734 C7.760000228881836,18.118000030517578 17.695999145507812,23.215999603271484 27.663999557495117,21.13800048828125 C37.729000091552734,18.9950008392334 44.7760009765625,10.293000221252441 44.7760009765625,0 C44.74399948120117,-10.097999572753906 37.729000091552734,-18.864999771118164 27.923999786376953,-21.007999420166016z M22.98900032043457,10.032999992370605 C17.56599998474121,9.935999870300293 13.215999603271484,5.389999866485596 13.281000137329102,-0.03200000151991844 C13.345000267028809,-5.650000095367432 17.891000747680664,-10.032999992370605 23.54199981689453,-9.902999877929688 C28.996000289916992,-9.805999755859375 33.31399917602539,-5.324999809265137 33.25,0.16200000047683716 C33.183998107910156,5.78000020980835 28.672000885009766,10.130999565124512 22.98900032043457,10.032999992370605z"></path></g><g opacity="1" transform="matrix(1,0,0,1,74.88200378417969,89.9800033569336)"><path fill="rgb(86,86,86)" fill-opacity="1" d=" M58.00699996948242,-19.594999313354492 C47.584999084472656,-22.841999053955078 36.57699966430664,-18.0049991607666 32.09700012207031,-7.9710001945495605 C31.12299919128418,-5.89300012588501 30.375999450683594,-4.561999797821045 27.614999771118164,-4.593999862670898 C-5.341000080108643,-4.691999912261963 -38.29800033569336,-4.658999919891357 -71.25399780273438,-4.658999919891357 C-71.25399780273438,-4.658999919891357 -74.63200378417969,-4.658999919891357 -74.63200378417969,-4.658999919891357 C-74.63200378417969,-4.658999919891357 -74.63200378417969,6.769999980926514 -74.63200378417969,6.769999980926514 C-73.56099700927734,6.672999858856201 -72.71600341796875,6.543000221252441 -71.83899688720703,6.543000221252441 C-38.525001525878906,6.510000228881836 -5.243000030517578,6.543000221252441 28.038000106811523,6.478000164031982 C30.018999099731445,6.478000164031982 30.92799949645996,7.126999855041504 31.707000732421875,9.010000228881836 C35.31100082397461,17.485000610351562 41.935001373291016,22.062999725341797 51.124000549316406,22.420000076293945 C61.70899963378906,22.841999053955078 71.06099700927734,15.017000198364258 72.81300354003906,4.756999969482422 C74.63200378417969,-6.054999828338623 68.36499786376953,-16.381000518798828 58.00699996948242,-19.594999313354492z M51.70800018310547,10.991000175476074 C46.31800079345703,11.055999755859375 41.7400016784668,6.607999801635742 41.61000061035156,1.184999942779541 C41.47999954223633,-4.367000102996826 45.895999908447266,-9.010000228881836 51.47999954223633,-9.140000343322754 C56.805999755859375,-9.23799991607666 61.41699981689453,-4.756999969482422 61.57899856567383,0.6650000214576721 C61.70899963378906,6.2179999351501465 57.22800064086914,10.925999641418457 51.70800018310547,10.991000175476074z"></path></g><g opacity="1" transform="matrix(1,0,0,1,45.13999938964844,158.45899963378906)"><path fill="rgb(86,86,86)" fill-opacity="1" d=" M27.486000061035156,-21.2189998626709 C17.614999771118164,-23.264999389648438 7.710999965667725,-18.297000885009766 3.5869998931884766,-8.913000106811523 C2.5480000972747803,-6.607999801635742 1.4450000524520874,-5.796000003814697 -1.121000051498413,-5.828000068664551 C-14.531000137329102,-5.958000183105469 -27.972999572753906,-5.89300012588501 -41.38199996948242,-5.89300012588501 C-42.48699951171875,-5.89300012588501 -43.55799865722656,-5.991000175476074 -44.888999938964844,-6.056000232696533 C-44.888999938964844,-6.056000232696533 -44.888999938964844,5.567999839782715 -44.888999938964844,5.567999839782715 C-44.888999938964844,5.567999839782715 -40.96099853515625,5.567999839782715 -40.96099853515625,5.567999839782715 C-27.777999877929688,5.567999839782715 -14.562999725341797,5.632999897003174 -1.3480000495910645,5.535999774932861 C1.184999942779541,5.502999782562256 2.5160000324249268,6.056000232696533 3.61899995803833,8.654000282287598 C7.677999973297119,18.23200035095215 18.231000900268555,23.263999938964844 28.200000762939453,20.797000885009766 C38.1349983215332,18.29599952697754 44.888999938964844,9.560999870300293 44.62900161743164,-0.5040000081062317 C44.402000427246094,-10.763999938964844 37.42100143432617,-19.173999786376953 27.486000061035156,-21.2189998626709z M22.972000122070312,9.821999549865723 C17.517000198364258,9.723999977111816 13.133000373840332,5.276000022888184 13.166000366210938,-0.1469999998807907 C13.166000366210938,-5.763999938964844 17.679000854492188,-10.211999893188477 23.32900047302246,-10.114999771118164 C28.94700050354004,-10.050000190734863 33.297000885009766,-5.4720001220703125 33.1349983215332,0.1770000010728836 C32.972999572753906,5.632999897003174 28.458999633789062,9.918999671936035 22.972000122070312,9.821999549865723z"></path></g></g><g transform="matrix(1,0,0,1,431.7850341796875,609.9429931640625)" opacity="1" style="display: none;"><g opacity="1" transform="matrix(1,0,0,1,158.1999969482422,44.99300003051758)"><path fill="rgb(86,86,86)" fill-opacity="1" d=" M8.392999649047852,3.4749999046325684 C6.380000114440918,2.630000114440918 5.697999954223633,1.722000002861023 5.730999946594238,-0.45399999618530273 C5.828000068664551,-14.220999717712402 5.763000011444092,-27.988000869750977 5.763000011444092,-41.75600051879883 C5.763000011444092,-42.665000915527344 5.860000133514404,-43.54100036621094 5.958000183105469,-44.74300003051758 C5.958000183105469,-44.74300003051758 -5.698999881744385,-44.74300003051758 -5.698999881744385,-44.74300003051758 C-5.698999881744385,-29.90399932861328 -5.730999946594238,-15.357000350952148 -5.633999824523926,-0.8109999895095825 C-5.60099983215332,1.559000015258789 -6.380000114440918,2.630000114440918 -8.588000297546387,3.572000026702881 C-18.06999969482422,7.663000106811523 -23.16699981689453,17.79400062561035 -21.024999618530273,27.729999542236328 C-18.849000930786133,37.79499816894531 -10.180000305175781,44.74300003051758 0.210999995470047,44.71099853515625 C10.406999588012695,44.71099853515625 19.17300033569336,37.47100067138672 21.18600082397461,27.437999725341797 C23.16699981689453,17.437000274658203 17.93899917602539,7.435999870300293 8.392999649047852,3.4749999046325684z M-0.017000000923871994,33.21699905395508 C-5.665999889373779,33.15299987792969 -10.017000198364258,28.638999938964844 -9.918999671936035,22.98900032043457 C-9.854999542236328,17.566999435424805 -5.374000072479248,13.248000144958496 0.11400000005960464,13.248000144958496 C5.697999954223633,13.279999732971191 10.11400032043457,17.826000213623047 10.015999794006348,23.47599983215332 C9.918999671936035,28.930999755859375 5.4710001945495605,33.249000549316406 -0.017000000923871994,33.21699905395508z"></path></g><g opacity="1" transform="matrix(1,0,0,1,90.71099853515625,74.11900329589844)"><path fill="rgb(86,86,86)" fill-opacity="1" d=" M8.604000091552734,32.599998474121094 C6.331999778747559,31.658000946044922 5.682000160217285,30.554000854492188 5.682000160217285,28.18400001525879 C5.747000217437744,-4.64300012588501 5.715000152587891,-37.50199890136719 5.747000217437744,-70.3290023803711 C5.747000217437744,-71.53099822998047 5.84499979019165,-72.73200225830078 5.909999847412109,-73.86900329589844 C5.909999847412109,-73.86900329589844 -5.454999923706055,-73.86900329589844 -5.454999923706055,-73.86900329589844 C-5.454999923706055,-73.86900329589844 -5.454999923706055,-69.64700317382812 -5.454999923706055,-69.64700317382812 C-5.454999923706055,-37.37200164794922 -5.48799991607666,-5.0970001220703125 -5.422999858856201,27.177000045776367 C-5.389999866485596,30.066999435424805 -6.006999969482422,31.658000946044922 -8.961000442504883,32.957000732421875 C-18.507999420166016,37.112998962402344 -23.215999603271484,47.47100067138672 -20.74799919128418,57.63399887084961 C-18.44300079345703,67.18000030517578 -9.612000465393066,73.86900329589844 0.4869999885559082,73.73899841308594 C10.616999626159668,73.64099884033203 19.18899917602539,66.53099822998047 21.202999114990234,56.62799835205078 C23.215999603271484,46.49700164794922 18.149999618530273,36.52899932861328 8.604000091552734,32.599998474121094z M0.3240000009536743,62.277000427246094 C-5.260000228881836,62.34199905395508 -9.935999870300293,57.82899856567383 -9.935999870300293,52.308998107910156 C-9.935999870300293,46.95100021362305 -5.454999923706055,42.40599822998047 -0.06499999761581421,42.2760009765625 C5.422999858856201,42.145999908447266 10.163000106811523,46.75600051879883 10.194999694824219,52.2760009765625 C10.227999687194824,57.63399887084961 5.715000152587891,62.2130012512207 0.3240000009536743,62.277000427246094z"></path></g><g opacity="1" transform="matrix(1,0,0,1,23.465999603271484,44.99399948120117)"><path fill="rgb(86,86,86)" fill-opacity="1" d=" M8.604999542236328,3.6040000915527344 C6.396999835968018,2.630000114440918 5.650000095367432,1.5260000228881836 5.650000095367432,-0.8119999766349792 C5.78000020980835,-14.480999946594238 5.715000152587891,-28.118000030517578 5.747000217437744,-41.78799819946289 C5.747000217437744,-42.72999954223633 5.876999855041504,-43.67100143432617 5.941999912261963,-44.74300003051758 C5.941999912261963,-44.74300003051758 -5.747000217437744,-44.74300003051758 -5.747000217437744,-44.74300003051758 C-5.747000217437744,-29.385000228881836 -5.714000225067139,-14.416000366210938 -5.875999927520752,0.5529999732971191 C-5.875999927520752,1.49399995803833 -7.304999828338623,2.825000047683716 -8.409000396728516,3.312000036239624 C-17.988000869750977,7.63100004196167 -23.215999603271484,17.56599998474121 -21.104999542236328,27.761999130249023 C-19.091999053955078,37.50299835205078 -10.293000221252441,44.645999908447266 -0.1940000057220459,44.71099853515625 C10.130999565124512,44.74300003051758 18.83300018310547,37.82699966430664 21.041000366210938,27.761999130249023 C23.215999603271484,17.857999801635742 18.118000030517578,7.728000164031982 8.604999542236328,3.6040000915527344z M-0.03200000151991844,33.249000549316406 C-5.617000102996826,33.21699905395508 -10.0649995803833,28.67099952697754 -10,23.054000854492188 C-9.9350004196167,17.631000518798828 -5.454999923706055,13.248000144958496 0,13.215999603271484 C5.422999858856201,13.215999603271484 9.935999870300293,17.663999557495117 9.968000411987305,23.086000442504883 C10.032999992370605,28.702999114990234 5.585000038146973,33.249000549316406 -0.03200000151991844,33.249000549316406z"></path></g></g><g transform="matrix(1,0,0,1,245.9619903564453,390.4169921875)" opacity="1" style="display: none;"><g opacity="1" transform="matrix(1,0,0,1,102.41600036621094,157.9709930419922)"><path fill="rgb(86,86,86)" fill-opacity="1" d=" M44.79199981689453,-5.374000072479248 C29.88800048828125,-5.341000080108643 15.017999649047852,-5.2769999504089355 0.11400000005960464,-5.374000072479248 C-0.7300000190734863,-5.374000072479248 -1.7690000534057617,-6.511000156402588 -2.385999917984009,-7.38700008392334 C-4.073999881744385,-9.756999969482422 -5.24399995803833,-12.581999778747559 -7.224999904632568,-14.628000259399414 C-13.946999549865723,-21.51099967956543 -24.139999389648438,-22.972000122070312 -32.486000061035156,-18.621000289916992 C-40.926998138427734,-14.204999923706055 -45.441001892089844,-4.659999847412109 -43.59000015258789,4.789000034332275 C-41.86899948120117,13.555999755859375 -34.30400085449219,20.667999267578125 -25.56999969482422,21.770999908447266 C-15.635000228881836,22.972999572753906 -6.672999858856201,18.134000778198242 -2.7769999504089355,9.043000221252441 C-1.8020000457763672,6.769000053405762 -0.6650000214576721,6.120999813079834 1.6729999780654907,6.1539998054504395 C15.213000297546387,6.250999927520752 28.753000259399414,6.184999942779541 42.29199981689453,6.184999942779541 C42.29199981689453,6.184999942779541 45.44200134277344,6.184999942779541 45.44200134277344,6.184999942779541 C45.44200134277344,6.184999942779541 45.44200134277344,-5.698999881744385 45.44200134277344,-5.698999881744385 C45.117000579833984,-5.504000186920166 44.95500183105469,-5.374000072479248 44.79199981689453,-5.374000072479248z M-22.841999053955078,10.439000129699707 C-28.458999633789062,10.244000434875488 -32.7130012512207,5.567999839782715 -32.42100143432617,-0.0820000022649765 C-32.15999984741211,-5.5370001792907715 -27.58300018310547,-9.723999977111816 -22.062999725341797,-9.529999732971191 C-16.510000228881836,-9.333999633789062 -12.225000381469727,-4.59499979019165 -12.484999656677246,1.0219999551773071 C-12.744999885559082,6.445000171661377 -17.354999542236328,10.633000373840332 -22.841999053955078,10.439000129699707z"></path></g><g opacity="1" transform="matrix(1,0,0,1,74.0530014038086,90.98600006103516)"><path fill="rgb(86,86,86)" fill-opacity="1" d=" M70.26499938964844,-5.535999774932861 C37.66600036621094,-5.535999774932861 5.0320000648498535,-5.568999767303467 -27.566999435424805,-5.504000186920166 C-30.295000076293945,-5.4710001945495605 -31.659000396728516,-6.185999870300293 -32.79499816894531,-8.815999984741211 C-36.88600158691406,-18.36199951171875 -47.04899978637695,-23.16699981689453 -57.40700149536133,-20.86199951171875 C-66.8550033569336,-18.75200080871582 -73.80400085449219,-9.822999954223633 -73.73899841308594,0.17800000309944153 C-73.67400360107422,10.37399959564209 -66.66100311279297,19.042999267578125 -56.85499954223633,21.089000701904297 C-46.69200134277344,23.16699981689453 -36.691001892089844,18.198999404907227 -32.696998596191406,8.75 C-31.724000930786133,6.4770002365112305 -30.68400001525879,5.567999839782715 -28.054000854492188,5.60099983215332 C4.7729997634887695,5.697999954223633 37.599998474121094,5.665999889373779 70.45899963378906,5.665999889373779 C70.45899963378906,5.665999889373779 73.80400085449219,5.665999889373779 73.80400085449219,5.665999889373779 C73.80400085449219,5.665999889373779 73.80400085449219,-5.535999774932861 73.80400085449219,-5.535999774932861 C73.80400085449219,-5.535999774932861 70.26499938964844,-5.535999774932861 70.26499938964844,-5.535999774932861z M-52.308998107910156,10.11400032043457 C-57.83000183105469,10.081999778747559 -62.34199905395508,5.438000202178955 -62.244998931884766,-0.1459999978542328 C-62.14699935913086,-5.568999767303467 -57.63399887084961,-10.017000198364258 -52.24399948120117,-10.017000198364258 C-46.75699996948242,-9.984999656677246 -42.17900085449219,-5.2769999504089355 -42.308998107910156,0.24300000071525574 C-42.40599822998047,5.665999889373779 -46.95199966430664,10.145999908447266 -52.308998107910156,10.11400032043457z"></path></g><g opacity="1" transform="matrix(1,0,0,1,103.03199768066406,23.513999938964844)"><path fill="rgb(86,86,86)" fill-opacity="1" d=" M-2.190999984741211,-5.828000068664551 C-2.677999973297119,-6.932000160217285 -3.1649999618530273,-8.10099983215332 -3.684000015258789,-9.204999923706055 C-8.03600025177002,-18.393999099731445 -18.458999633789062,-23.263999938964844 -28.29800033569336,-20.73200035095215 C-38.20100021362305,-18.198999404907227 -44.82400131225586,-9.46500015258789 -44.56399917602539,0.6660000085830688 C-44.30400085449219,10.666000366210938 -37.194000244140625,19.270999908447266 -27.549999237060547,21.2189998626709 C-17.483999252319336,23.263999938964844 -7.515999794006348,18.23200035095215 -3.424999952316284,8.718000411987305 C-2.4509999752044678,6.478000164031982 -1.347000002861023,5.796000003814697 1.0230000019073486,5.828000068664551 C14.465999603271484,5.926000118255615 27.906999588012695,5.861000061035156 41.31800079345703,5.861000061035156 C41.31800079345703,5.861000061035156 44.82500076293945,5.861000061035156 44.82500076293945,5.861000061035156 C44.82500076293945,5.861000061035156 44.82500076293945,-5.828000068664551 44.82500076293945,-5.828000068664551 C44.82500076293945,-5.828000068664551 -2.190999984741211,-5.828000068664551 -2.190999984741211,-5.828000068664551z M-23.263999938964844,10.11400032043457 C-28.68600082397461,10.048999786376953 -33.06999969482422,5.60099983215332 -33.06999969482422,0.11400000005960464 C-33.06999969482422,-5.504000186920166 -28.555999755859375,-9.920000076293945 -22.906999588012695,-9.854999542236328 C-17.288999557495117,-9.756999969482422 -12.939000129699707,-5.178999900817871 -13.10099983215332,0.47099998593330383 C-13.229999542236328,5.926000118255615 -17.743999481201172,10.178999900817871 -23.263999938964844,10.11400032043457z"></path></g></g><g transform="matrix(1,0,0,1,393.8650207519531,352.5530090332031)" opacity="0.5460922411935769" style="display: block;"><g opacity="1" transform="matrix(1,0,0,1,128.87899780273438,128.94000244140625)"><path fill="rgb(139,201,181)" fill-opacity="1" d=" M128.2949981689453,-73.1760025024414 C128.2949981689453,-73.1760025024414 128.2949981689453,77.66100311279297 128.2949981689453,77.66100311279297 C128.08299255371094,84.72599792480469 128.62899780273438,91.9729995727539 127.44599914550781,98.88500213623047 C124.56600189208984,116.13700103759766 109.49700164794922,128.1439971923828 91.60800170898438,128.38600158691406 C85.54499816894531,128.44700622558594 79.45099639892578,128.38600158691406 73.23500061035156,128.38600158691406 C73.23500061035156,128.4770050048828 73.23500061035156,128.5989990234375 73.20500183105469,128.69000244140625 C73.20500183105469,128.69000244140625 -5.716000080108643,128.69000244140625 -5.716000080108643,128.69000244140625 C-5.716000080108643,128.69000244140625 -5.716000080108643,128.5679931640625 -5.716000080108643,128.5679931640625 C-5.716000080108643,128.5679931640625 -61.56399917602539,128.5679931640625 -61.56399917602539,128.5679931640625 C-61.56399917602539,128.5679931640625 -61.56399917602539,128.69000244140625 -61.56399917602539,128.69000244140625 C-61.56399917602539,128.69000244140625 -73.23600006103516,128.69000244140625 -73.23600006103516,128.69000244140625 C-73.23600006103516,128.69000244140625 -73.23600006103516,128.5989990234375 -73.23600006103516,128.5989990234375 C-74.60099792480469,128.50799560546875 -75.81300354003906,128.41700744628906 -76.96600341796875,128.41700744628906 C-82.63500213623047,128.38699340820312 -88.2750015258789,128.62899780273438 -93.88400268554688,128.26600646972656 C-113.6520004272461,127.11399841308594 -128.1750030517578,111.70999908447266 -128.53799438476562,91.85099792480469 C-128.6300048828125,85.75700378417969 -128.53799438476562,79.66300201416016 -128.53799438476562,73.08300018310547 C-128.53799438476562,73.08300018310547 -128.60000610351562,73.08300018310547 -128.60000610351562,73.08300018310547 C-128.60000610351562,73.08300018310547 -128.60000610351562,-73.38700103759766 -128.60000610351562,-73.38700103759766 C-128.60000610351562,-73.38700103759766 -128.53799438476562,-73.38700103759766 -128.53799438476562,-73.38700103759766 C-128.53799438476562,-79.66300201416016 -128.60000610351562,-85.6969985961914 -128.53799438476562,-91.76000213623047 C-128.447998046875,-101.15899658203125 -125.38600158691406,-109.49800109863281 -119.01799774169922,-116.44200134277344 C-111.8030014038086,-124.3550033569336 -102.73699951171875,-128.2949981689453 -92.00399780273438,-128.41600036621094 C-90.69999694824219,-128.44700622558594 -89.39700317382812,-128.44700622558594 -88.12300109863281,-128.44700622558594 C-88.12300109863281,-128.44700622558594 -73.23600006103516,-128.44700622558594 -73.23600006103516,-128.44700622558594 C-73.23600006103516,-128.44700622558594 -73.23600006103516,-128.68899536132812 -73.23600006103516,-128.68899536132812 C-73.23600006103516,-128.68899536132812 5.715000152587891,-128.68899536132812 5.715000152587891,-128.68899536132812 C5.715000152587891,-128.68899536132812 5.715000152587891,-128.6300048828125 5.715000152587891,-128.6300048828125 C5.715000152587891,-128.6300048828125 61.53200149536133,-128.6300048828125 61.53200149536133,-128.6300048828125 C61.53200149536133,-128.6300048828125 61.53200149536133,-128.68899536132812 61.53200149536133,-128.68899536132812 C61.53200149536133,-128.68899536132812 73.20500183105469,-128.68899536132812 73.20500183105469,-128.68899536132812 C73.20500183105469,-128.68899536132812 73.20500183105469,-128.44700622558594 73.20500183105469,-128.44700622558594 C73.20500183105469,-128.44700622558594 90.88099670410156,-128.44700622558594 90.88099670410156,-128.44700622558594 C98.76399993896484,-128.44700622558594 106.07099914550781,-126.53800201416016 112.52899932861328,-121.95999908447266 C122.89900207519531,-114.56199645996094 128.11300659179688,-104.40499877929688 128.2949981689453,-91.6709976196289 C128.3560028076172,-85.63700103759766 128.2949981689453,-79.572998046875 128.2949981689453,-73.1760025024414z"></path></g></g><g transform="matrix(1,0,0,1,454.9369812011719,420.5159912109375)" opacity="1" style="display: none;"><g opacity="1" transform="matrix(1,0,0,1,50.82099914550781,60.98500061035156)"><path fill="rgb(255,255,255)" fill-opacity="1" d=" M50.441001892089844,59.30500030517578 C37.06399917602539,20.082000732421875 23.687000274658203,-19.139999389648438 10.211999893188477,-58.36399841308594 C9.887999534606934,-59.3380012512207 8.295999526977539,-60.4739990234375 7.224999904632568,-60.50699996948242 C1.8350000381469727,-60.73400115966797 -3.5869998931884766,-60.604000091552734 -9.39900016784668,-60.604000091552734 C-23.101999282836914,-20.30900001525879 -36.73899841308594,19.856000900268555 -50.57099914550781,60.540000915527344 C-45.83100128173828,60.540000915527344 -41.67599868774414,60.37699890136719 -37.52000045776367,60.60499954223633 C-35.08399963378906,60.73500061035156 -34.01300048828125,59.89099884033203 -33.26599884033203,57.553001403808594 C-29.823999404907227,46.70800018310547 -26.09000015258789,35.95899963378906 -22.648000717163086,25.11400032043457 C-21.966999053955078,22.940000534057617 -20.992000579833984,22.354999542236328 -18.881999969482422,22.386999130249023 C-6.576000213623047,22.483999252319336 5.697000026702881,22.517000198364258 18.003999710083008,22.354999542236328 C20.503999710083008,22.32200050354004 21.51099967956543,23.232999801635742 22.257999420166016,25.5049991607666 C25.797000885009766,36.28499984741211 29.465999603271484,47.064998626708984 33.19900131225586,57.8120002746582 C33.55699920654297,58.81800079345703 34.49800109863281,60.34400177001953 35.244998931884766,60.375999450683594 C40.31100082397461,60.604000091552734 45.439998626708984,60.50699996948242 50.57099914550781,60.50699996948242 C50.50600051879883,59.7599983215332 50.50699996948242,59.5 50.441001892089844,59.30500030517578z M-18.166000366210938,9.984000205993652 C-12.126999855041504,-8.718999862670898 -6.119999885559082,-27.323999404907227 -0.37299999594688416,-45.18199920654297 C5.438000202178955,-27.356000900268555 11.477999687194824,-8.784000396728516 17.582000732421875,9.984000205993652 C17.582000732421875,9.984000205993652 -18.166000366210938,9.984000205993652 -18.166000366210938,9.984000205993652z"></path></g><g opacity="1" transform="matrix(1,0,0,1,127.28700256347656,60.90399932861328)"><path fill="rgb(255,255,255)" fill-opacity="1" d=" M7.678999900817871,60.393001556396484 C7.678999900817871,60.393001556396484 -7.678999900817871,60.393001556396484 -7.678999900817871,60.393001556396484 C-7.678999900817871,60.393001556396484 -7.678999900817871,-60.393001556396484 -7.678999900817871,-60.393001556396484 C-7.678999900817871,-60.393001556396484 7.678999900817871,-60.393001556396484 7.678999900817871,-60.393001556396484 C7.678999900817871,-60.393001556396484 7.678999900817871,60.393001556396484 7.678999900817871,60.393001556396484z"></path></g></g></g></g></svg>